<?xml version="1.0" encoding="UTF-8"?>
<svg id="Camada_1" xmlns="http://www.w3.org/2000/svg" viewBox="0 0 412.6 414.38">
  <defs>
    <style>
      .cls-1 {
        fill: #f8f8ec;
      }

      .cls-2 {
        fill: #caddd6;
      }

      .cls-3 {
        fill: #638a8d;
      }

      .cls-4 {
        fill: #a5ddad;
      }

      .cls-5 {
        fill: #6ac9b5;
      }

      .cls-6 {
        fill: #7ed7b0;
      }

      .cls-7 {
        fill: #dbe4dc;
      }

      .cls-8 {
        fill: #e9f9f7;
      }

      .cls-9 {
        fill: #61ceb9;
      }

      .cls-10 {
        fill: #f3f7f0;
      }

      .cls-11 {
        fill: #6fd4b7;
      }

      .cls-12 {
        fill: #86cfad;
      }

      .cls-13 {
        fill: #a2dbac;
      }

      .cls-14 {
        fill: #0d2e42;
      }

      .cls-15 {
        fill: #98e7ec;
      }

      .cls-16 {
        fill: #84e0ea;
      }

      .cls-17 {
        fill: #77d6b1;
      }

      .cls-18 {
        fill: #47c0df;
      }

      .cls-19 {
        fill: #133140;
      }

      .cls-20 {
        fill: #98e0b5;
      }

      .cls-21 {
        fill: #50bdb2;
      }

      .cls-22 {
        fill: #74dae9;
      }

      .cls-23 {
        fill: #d9e2de;
      }

      .cls-24 {
        fill: #99e5e5;
      }

      .cls-25 {
        fill: #1e4655;
      }

      .cls-26 {
        fill: #112b38;
      }

      .cls-27 {
        fill: #9ce8f0;
      }

      .cls-28 {
        fill: #dbe0d4;
      }

      .cls-29 {
        fill: #99d7a6;
      }

      .cls-30 {
        fill: #b9dfc3;
      }

      .cls-31 {
        fill: #58d3df;
      }

      .cls-32 {
        fill: #95d9b0;
      }

      .cls-33 {
        fill: #4ec2df;
      }

      .cls-34 {
        fill: #95e0b8;
      }

      .cls-35 {
        fill: #57cdd7;
      }

      .cls-36 {
        fill: #6ed9e7;
      }

      .cls-37 {
        fill: #79cdac;
      }

      .cls-38 {
        fill: #8cd8ac;
      }

      .cls-39 {
        fill: #0c2a39;
      }

      .cls-40 {
        fill: #c1cecb;
      }

      .cls-41 {
        fill: #9feaf0;
      }

      .cls-42 {
        fill: #78d2ad;
      }

      .cls-43 {
        fill: #153746;
      }

      .cls-44 {
        fill: #4fcfdb;
      }

      .cls-45 {
        fill: #edf9f9;
      }

      .cls-46 {
        fill: #e6ecec;
      }

      .cls-47 {
        fill: #dfefeb;
      }

      .cls-48 {
        fill: #51c8c1;
      }

      .cls-49 {
        fill: #cbe7cf;
      }

      .cls-50 {
        fill: #163242;
      }

      .cls-51 {
        fill: #f6f6eb;
      }

      .cls-52 {
        fill: #1a303c;
      }

      .cls-53 {
        fill: #d9e0da;
      }

      .cls-54 {
        fill: #75dce8;
      }

      .cls-55 {
        fill: #5fcde2;
      }

      .cls-56 {
        fill: #37b3db;
      }

      .cls-57 {
        fill: #77d4e1;
      }

      .cls-58 {
        fill: #d5dfd9;
      }

      .cls-59 {
        fill: #abc1bc;
      }

      .cls-60 {
        fill: #4bd7e5;
      }

      .cls-61 {
        fill: #83d9e4;
      }

      .cls-62 {
        fill: #0a2632;
      }

      .cls-63 {
        fill: #0d2938;
      }

      .cls-64 {
        fill: #2fabd6;
      }

      .cls-65 {
        fill: #11293a;
      }

      .cls-66 {
        fill: #f8f9f3;
      }

      .cls-67 {
        fill: #8cd6a8;
      }

      .cls-68 {
        fill: #77cbac;
      }

      .cls-69 {
        fill: #5bc9e2;
      }

      .cls-70 {
        fill: #1a3b49;
      }

      .cls-71 {
        fill: #f5f7ee;
      }

      .cls-72 {
        fill: #40b8db;
      }

      .cls-73 {
        fill: #63c3ad;
      }

      .cls-74 {
        fill: #f2f5ec;
      }

      .cls-75 {
        fill: #dbe1d8;
      }

      .cls-76 {
        fill: #5ccbc2;
      }

      .cls-77 {
        fill: #66cfe6;
      }

      .cls-78 {
        fill: #d9e5e1;
      }

      .cls-79 {
        fill: #f6f6ef;
      }

      .cls-80 {
        fill: #112e3c;
      }

      .cls-81 {
        fill: #78d6e6;
      }

      .cls-82 {
        fill: #bfe4c3;
      }

      .cls-83 {
        fill: #5e7f7f;
      }

      .cls-84 {
        fill: #132d39;
      }

      .cls-85 {
        fill: #52ced1;
      }

      .cls-86 {
        fill: #a0e8eb;
      }

      .cls-87 {
        fill: #dbe4e1;
      }

      .cls-88 {
        fill: #89e2e9;
      }

      .cls-89 {
        fill: #f4f7f2;
      }
    </style>
  </defs>
  <path class="cls-19" d="M403.18,144.23c6.13,15.64,8.81,32.01,9.27,48.67.8,28.74-1.28,57.13-11.47,84.47-18.62,49.98-51.61,87.34-98.25,112.86-2.74,1.5-5.36,3.35-8.52,4-2.93.79-6.09,1.07-8.13,3.77-3.99,1.46-7.97,2.91-11.96,4.37-2.35-3.21-1.03-5.6,1.82-7.47,2.07-1.36,4.36-2.39,6.2-4.1,4.3-2.88,9.19-4.67,13.62-7.69-47.45-.5-94.89-.63-142.33-.48-10.61.06-21.23-.05-31.85.06-2.59.03-5.37-.44-7.49,1.71-.8,2.3.71,6.23-4.02,5.79-7.85-3.25-14.76-8.15-21.66-12.93C41.37,344.66,13.41,299.68,3.14,243.67-2.81,211.23-.03,179.14,9.17,147.55c.45-1.56,1.24-3.02,1.88-4.52,2.17,2.08,4.27,4.22,5.87,6.8.79,2.75-.49,5.16-1.23,7.67-1.73,5.86-2.61,11.89-3.57,17.9-.85,5.28-1.29,10.62-1.94,15.92-1.06,3.71-.57,7.5-.5,11.26.09,5.11-.07,10.23-.06,15.33q.13,8.84,8.8,8.86c7.32,0,14.64-.06,21.96.02,3.44.04,4.48-1.22,3.38-4.56-4.95-14.93-5.47-30.36-5.04-45.89.35-9.86.5-19.75,3.07-29.37,1.29-5.39,2.99-10.64,5.15-15.74,4.35-11.06,10.28-21.35,15.82-31.82.98-1.86,1.91-3.89,4.26-4.54,3.27.06,5.62,1.41,6.57,4.71-.1,2.98-1.88,5.27-3.2,7.75-6.87,12.94-14.05,25.73-17.77,40.09-.8,3.09-1.43,6.21-1.62,9.33-1.4,22.42-3.31,44.89,4.74,66.64,7.1,19.17,18.37,35.35,34.23,48.3,2.86,2.33,6.02,3.24,9.7,3.22,19.82-.08,39.65-.02,59.47-.05,5.88-.01,6.45-.66,5.28-6.4-3.12-15.4-9.98-28.5-23.2-37.75-4.23-2.96-8.3-6.16-12.56-9.06-11.99-8.17-19.83-20.06-28.43-31.28-.51-.67-.75-1.48-.79-2.33-.03-1.13.29-2.18-.13-3.4-2.02-5.89-1.95-5.93,3.67-8.65,4,1.08,4.54,5.25,6.92,7.77,10.8,17.62,26.14,30.49,43.34,41.41,13.76,11.5,20.62,26.66,22.8,44.06.57,4.57,2.43,5.72,6.69,5.67,15.95-.19,31.91-.05,47.87-.09,5.71-.01,6.03-.37,7.1-6,2.65-13.9,7.09-27,16.97-37.64,6.65-6.56,13.86-12.43,22.12-16.85,6.8-3.64,10.75-10.28,16.44-15.08,4.77-4.88,8.37-10.63,12.04-16.31,2.1-3.25,2.59-6.45-.03-10.05-2.71-3.72-3.49-8.56-6.18-12.38-1.83-4.25-4.18-8.19-7.04-11.81-3.25-4.1-5.09-8.77-5.92-13.88-.31-6.78,1.42-12.58,8.15-15.59,2.54-1.14,2.32-2.65,1.68-4.8-1.8-6.03-1.94-12.08.29-18.06,5.54-8.4,12.54-10.85,21.65-7.18,2.28.92,2.93-.03,3.81-1.58,1.6-2.8,3.73-5.05,6.75-6.38,5.61-2.47,10.43-1.34,15.18,3.64,9.13,18.55,20.27,36.15,26.49,56.08.54,1.74,1.17,3.45,1.52,5.26,1.89,5.91,2.98,11.96,2.9,18.17-.14,10.48.48,20.96-.36,31.43-1.52,9.34-3.41,18.61-6.19,27.67-.76,2.46.05,3.37,2.54,3.34,9.14-.09,18.28-.08,27.42-.01,3.46.02,4.65-1.76,4.99-4.82,1.12-10.11.9-20.24.24-30.35-.35-5.28-.93-10.59-2-15.8-2.53-17.56-8.37-34.13-15.13-50.43-.75-1.81-2.01-3.51-1.44-5.66,3.1-1.56,4.14,1.05,5.04,2.88,2.08,4.19,4.46,8.13,7.54,11.64,1.12,1.28,1.97,2.76,1.96,4.47-.01,2.91,1.42,4.6,4.06,5.48Z"/>
  <path class="cls-84" d="M16.29,149.29c-2.65-1.33-5.01-2.9-5.24-6.26-.14-2.19.88-4.03,1.8-5.89,1.43-1.34,2.4,2.55,3.61.46,1.2-2.09-.65-3.71-1.62-5.4,4.04-12.68,10.65-24.12,17.46-35.43C63.14,45.59,109.39,16.54,166.8,3.83c15.81-3.5,31.95-4.53,48.09-3.37,4.37.32,8.8.43,13.17.99.36,1.54-1.29,1.66-1.98,2.69,3.17,1.54,6.37,2.52,9.75,3.16,1.89.36,4.69.71,2.36,3.89-6.9.69-13.63-.44-20.36-1.77-9.67-1.11-19.34-1.02-29-.04-10.63,2.27-21.49,3.32-32.01,6.21-.63.18-1.29.28-1.89.55-17.77,5.56-35.21,11.9-51.16,21.77-6.07,3.76-12.08,7.6-17.79,11.88-11.1,7.84-20.53,17.43-29.21,27.8-3.28,3.63-6.08,7.63-8.99,11.55-9.87,15.46-20.11,30.72-25.83,48.39-2.56,3.6-2.59,8.41-5.68,11.75Z"/>
  <path class="cls-52" d="M239.03,10.51c-.34-1.01-1.02-2.02-2.03-1.96-5.19.34-9.29-3.35-14.57-3.47,1.1-2.91,4.27-1.86,5.63-3.64,16.27.83,31.78,5.08,46.98,10.57,38.35,13.85,70.38,36.52,95.39,68.87,14.77,19.11,26.05,40.05,32.75,63.34-2.03.44-5.09,1.47-4.8-1.78.61-6.66-4.85-9.83-7.53-14.48-1.7-2.94-1.73-7.33-5.92-8.63-.44.27-.89.3-1.35.09-1.95-1.45-2.97-3.61-3.87-5.7-5.01-11.71-12.47-21.83-20.32-31.71-8.58-12.2-19.7-21.78-31.48-30.7-1.46-1.1-2.9-2.19-4.52-3.03-5.58-3.63-11.08-7.38-16.99-10.47-15.95-8.93-32.43-16.63-49.94-22.01-2.22-.68-4.47-1.29-6.83-1.12-3.91-.43-7.74-1.07-10.58-4.18Z"/>
  <path class="cls-43" d="M110.07,390.2c3.12-1.17,3.1-3.41,2.06-6.01,2.64-1.59,4.8.2,7.01,1.1,8.31,3.41,16.27,7.65,24.92,10.27,11.59,4.26,23.43,5.58,35.81,4.6,18.38-1.45,36.82-2.42,55.22.14,11.23,1.56,21.78-1.79,32.37-4.69,3.05-.84,5.99-2.02,8.96-3.1,1.82-.67,3.7-1.74,5.66-.26-.66,1.51-2.09,2.15-3.45,2.6-3.73,1.24-5.27,3.65-4.5,7.51-12.18,4.97-25.02,7.55-37.91,9.59-33.96,5.38-67.15,1.64-99.51-9.71-9.21-3.23-18.27-6.9-26.64-12.05Z"/>
  <path class="cls-19" d="M14.83,132.2c1,.13,2.15.22,2.61,1.18,1.13,2.38,1.59,5.15-.83,6.71-3.04,1.96-1.77-2.84-3.77-2.95.66-1.65,1.33-3.29,1.99-4.94Z"/>
  <path class="cls-43" d="M286.07,398c.91-5.13,4.63-4.21,8.13-3.77-2.52,1.68-5.18,3.03-8.13,3.77Z"/>
  <path class="cls-51" d="M99.88,187.38c10.33,15.01,21.5,29.21,37.43,38.82,17.2,10.37,26.06,26.01,29.09,45.48.54,3.48-.37,4.25-3.74,4.24-21.81-.04-43.62.06-65.43.27-2.71.03-4.78-.85-6.81-2.42-19.06-14.8-31.12-34.24-38.21-57.09-3.22-10.35-3.71-20.97-3.63-31.62.13-16.78-.29-33.64,6.45-49.65,4.47-10.61,10.01-20.63,15.31-30.8.92-1.76,1.78-3.55,2.67-5.32-1.06-4.08,1.37-7.06,3.67-9.71,2.03-2.34,4.83-1.69,7.05.34,1.62,1.48,2.5,3.46,3.26,5.49,1.5,7.15-1.36,13.48-3.79,19.88-3.97,8.98-8.62,17.65-12.65,26.61-2.58,5.74-3.18,11.84-3.46,18.01-1.33,14.64-2.28,28.91,7.4,41.95,7.91,10.64,13.63,22.82,21.37,33.66,3.68,5.15,7.58,10.11,13.14,13.44,1.14.69,2.28,1.43,3.62,1.61,1.52.2,3.15.24,3.81-1.51.57-1.52-.5-2.69-1.66-3.28-10.45-5.26-15.37-15.33-21.39-24.43-4.13-6.24-7.85-12.73-11.62-19.2-1.23-2.11-2.74-4.24-2.3-6.95.8-2.26,3.22-1.87,4.75-2.92,4.82-1.47,8.76-3.97,10.61-8.96,3.13-.44,4.35,1.5,5.05,4.07Z"/>
  <path class="cls-51" d="M246.95,271.96c3.12-18.46,10.53-34.72,27.3-44.31,17.59-10.07,29.46-25.06,40.07-41.56,2.07-3.21,4.32-6.31,6.64-9.35,3.68-4.83,8.16-5.98,12.54-3.03,5.62,3.79,8.4,7.77,5.18,13.58-9.84,17.75-20.19,35.19-31.95,51.75-2.03,2.86-4.95,4.92-7.73,7.04-1.4,1.07-2.57,2.31-1.68,4.2.92,1.96,2.7,2.37,4.65,1.92,2.85-.65,5.09-2.41,7.2-4.3,4-3.58,7.34-7.76,10.13-12.3,8.54-13.88,16.94-27.84,25.36-41.79,2.93-4.85,4.33-10.09,3.4-15.77-.66-4.01-.02-7.98.22-11.94.91-14.97-4.79-27.99-11.62-40.71-3.23-6.01-6.87-11.84-8.84-18.41-1.75-5.83-1.81-11.53,3.14-16.16,1.92-1.79,3.64-2.44,4.97.61,6.69,15.41,16.49,29.26,22.38,45.11,8.39,22.59,7.95,45.58,3.94,68.82-3.83,7-6.19,14.64-9.49,21.86-6.58,14.38-15.42,27.12-27.39,37.57-1.26,1.1-2.33,2.36-3.47,3.57-4.45,4.78-9.44,7.68-16.52,7.51-18.28-.42-36.58-.17-54.87-.12-2.71,0-4.86-.18-3.55-3.78Z"/>
  <path class="cls-67" d="M324.01,47.42c14.09,9.08,26.29,20.18,36.02,33.89.26,1.28-.67,1.39-1.45,1.22-2.8-.58-6.27-.36-8.32-1.19-4.34-1.75-4.53.55-5.52,3.11-.29.76-.85,1.44-1.88.95-6.45-6.53-15.01-5.54-19.76,2.63-1.81,3.11-2.84,4.1-6.47,1.96-6.24-3.67-13.5-.9-19.32,6.45-1.83.54-2.12-1.17-2.93-2.05-1.73-1.89-3.96-2.77-6.28-2.07-3.6,1.1-7.13.93-10.78.7-5.27-.33-9.54,1.94-13.18,5.7-2.03,2.1-1.73,4.54-1.52,6.98.24,2.8,1.06,5.55.67,8.39-.17,1.23-.05,3-1.8,3.04-1.38.03-1.41-1.58-1.78-2.63-.16-.47-.31-.94-.55-1.38-1.77-3.97-1.98-8.38-3.48-12.44-6.41-17.28-19.55-27.02-36.37-32.71-1.61-.54-3.83-.11-4.43-2.48.34-1.12,2.38-.78,2.11-2.37-1.25-7.2,3.69-10.24,8.8-13.2,10.3-3,21.11-1.54,31.53-3.69,5.63-1.16,11.35-2.41,17.23-1.32,3.43.64,6.82,1.27,9.61,3.57-2.49,2.6-4.13,5.5-4.25,9.3-.07,2.2-2.32,2.5-4.13,2.89-1.17.25-2.41.64-2.42,2.06-.01,1.39,1.17,1.95,2.33,2.2,2.3.5,3.72,1.89,4.8,3.94.94,1.79,2.97,2.62,3.71.42,1.59-4.73,5.43-4.14,8.91-4.69,2.37-.92,3.54-3.13,4.44-5.1,2.19-4.81,5.53-8.45,9.53-11.79,4.93-4.12,7.01-4.54,12.89-1.66,1.27.62,2.4,1.87,4.07,1.37Z"/>
  <path class="cls-44" d="M256.03,231.13c-10.12,11.88-15.18,25.94-17.43,41.13-.42,2.85-1.35,3.9-4.36,3.88-18.44-.12-36.88-.04-55.32-.01-1.88,0-3.59.17-3.78-2.6-1.3-19.06-8.66-35.25-23.09-48.02-1.81-2.23-4.36-3.56-6.59-5.24-5.14-3.88-6.13-8.2-2.66-13.6,1.7-2.64,3.6-5,3.93-8.43.44-4.51,2.17-5.04,6.97-2.8,1.08.87,1.57,2.11,2.07,3.35,8.56,21.19,24.59,32.87,46.97,34.87,14.41,1.29,27.59-3.63,38.66-13.16,5.03-4.33,9.82-9.01,12.11-15.59.6-1.73,1.67-3.27,3.54-3.99,6.84,2.64,9.13,7.93,6.99,14.48-1.86,5.71-3.62,11.35-8,15.72Z"/>
  <path class="cls-33" d="M97.9,373.28c-8.18-3.65-15.14-9.03-21.93-14.84,1.5-1.7,2.92-1.2,4.16-1.2,58.84-.04,117.68-.05,176.52-.06.83,0,1.65.13,2.48.2.32.11.64.2.95.29,1.65.47,4.43-1.04,4.83,1.05.42,2.18-2.25,3.09-4.19,3.47-5.32,1.04-8.82,5.69-15.39,6.26,5.73,3.3,11.44.77,15.77,3.84-.63,1.72-1.78,1.36-2.69,1.36-52.86.02-105.72.03-158.59.02-.67,0-1.32-.08-1.93-.38Z"/>
  <path class="cls-88" d="M156.12,308.26c20.93-.07,41.86-.2,62.79-.19,33.73.03,67.45.16,101.18.25,4.9.9,9.83.16,14.74.4,1.91,2.38,1.36,6.54-1.46,8.42-2.56,1.7-5.56,2.73-1.5,6.15,1.12.94-.6,1.32-1.55,1.4-8.21-.02-16.4,0-24.6,0-9.14,0-18.32-.54-27.41.1-32.84,2.3-65.71.37-98.56,1.03-2.82.06-5.65.16-8.44-.39-2.11-.49-3.99-1.55-5.84-2.63-1.6-.94-3.08-2.1-2.98-4.22.12-2.33,1.83-3.46,3.74-4.15,3.25-1.18,6.47-2.54,10.03-2.63,1.98-.05,3.95-.29,6.55-1.11-7.61-.16-14.54.07-21.45-.14-1.94-.06-4.46.65-5.24-2.3Z"/>
  <path class="cls-26" d="M99.88,187.38c-1.58-1.38-3.17-2.77-4.75-4.15-1.45-.35-2.15-1.63-3.17-2.52-.24-.23-.46-.46-.67-.72-6.43-7.68-7.69-7.88-16.25-2.53-1.11.69-2.1,1.58-3.52,1.6-4.24,0-6.42-1.68-5.91-6.33.47-4.26-.35-8.59.44-12.86-.49-5.53.04-10.96,2.36-16.03,4.38-9.59,8.95-19.09,13.44-28.63,2.76-3.17,2.47,1.96,4.35,1.59,1.44-.28,2.94-3.72,4.45-.08-3.37,8.78-7.31,17.32-11.25,25.84-1.46,3.17-2.75,6.37-3.34,9.81-.78,2.91-.59,5.94-1.2,8.88-.44,2.13.29,3,2.7,2.69,6.62-.87,6.66-.79,7.72-7.47.68-4.29,2-8.4,3.4-12.49,5.11-9.85,10.37-19.62,15.14-29.65,1.8-3.78,2.37-7.56,1.85-11.59-.26-2.05-.98-4.02-3.28-4.5-2.36-.5-3.59,1.19-4.69,2.95-1.3,2.07-1.36,4.87-3.67,6.35-2.47-.82-3.35-3.96-6.41-4.15-1.36-.08-.75-1.9-.97-2.97-.35-1.66.94-3.6-.85-5-.94-1.5-1.7-3.17-2.86-4.47-2.44-2.71-4.73-2.45-6.4.89-1.23,2.45-2.34,4.96-3.51,7.44-1.57-1.97-3.92-2.8-5.93-4.13-.84-4.89,2.61-8.05,4.74-11.75,3.14-3.26,7.03-3.81,11.26-3.14,2.15.5,4.44,1.37,5.59,3.05,3.36,4.93,7.5,4.75,12.86,3.93,8.67-1.34,13.76,2.97,15.76,11.54,1.31,5.61,1.92,11.18-.8,16.55-1.37,2.72-.78,4.3,2.18,5.22,1.77.55,3.1,1.9,4.28,3.32,4.4,7.78,2.96,15.12-1.66,22.22-5.14,7.66-10.52,15.17-13.06,24.28-.67,2.42-2.21,4.85-5.03,5.78-.16.81-.33,1.71-1.25,1.91-4.17.87-3.33,3.36-1.66,5.7,1.11,1.56,2.05,2.64-.41,3.6Z"/>
  <path class="cls-15" d="M156.12,308.26c2.72,1.94,5.79.82,8.69.89,7.11.18,14.24.06,21.82.06-1.88,4.05-5.57,3.83-8.24,3.79-4.34-.07-8.03,1.77-12.02,2.68-1.39.32-2.95,1.02-3.1,2.84-.16,1.89,1.44,2.39,2.72,3.14,1.41.82,3.16,1.12,4.12,2.65-1.15,1.14-2.64,1.39-4.15,1.41-10.47.17-21.02.88-31.4-.21-8.48-.89-16.89-.43-25.32-.81-.83-.04-1.66,0-2.43.4-19.11-.09-38.22-.31-57.32-.17-3.56.03-5.5-1.23-7.12-4.06-1.48-2.59-3.26-5.01-4.87-7.53-.69-1.09-2.12-2.09-1.52-3.48.72-1.66,2.57-1.22,3.97-1.24,7.64-.15,15.28-.24,22.93-.28,29.26-.13,58.51-.24,87.77-.33,1.82,0,3.64.17,5.47.25Z"/>
  <path class="cls-56" d="M142.84,396.29c-8.28-1.89-15.48-6.46-23.33-9.42-2.45-.92-4.72-2.34-7.39-2.68-1.03-.96-.84-1.83.46-2.07,2.1-.39,4.25-.71,6.39-.73,11.39-.1,22.79-.09,34.18-.12,1.75.81,3.61.4,5.41.4,28.27.03,56.54,0,84.8.07,1.67,0,4.05-1.06,4.89,1.15.74,1.96-1.31,3.18-2.43,4.57-2.57,3.2-5.92,5.12-9.69,6.72-9.72,4.14-19.63,6.61-30.32,5.56-3.9-.38-7.88-.3-11.85.73-2.62.68-5.64.77-7.81-1.85-.99-1.19-2.51-1.74-4.03-1.73-5.21.04-10.29-1.06-15.23-2.38-7.06-1.89-13.32,2.37-20.13,1.89-1.29-.09-2.62.47-3.91-.11Z"/>
  <path class="cls-70" d="M106.81,325.1c6.61-1.07,13.26-.41,19.89-.49,14.47-.18,28.94-.21,43.41-.3,18.96.05,37.91.14,56.87.14,26.28,0,52.56-.05,78.84-.09.4.07.57.3.49.7h-30.29c-.05.44-.11.88-.16,1.32,6.95,3.25,14.45,4.24,22.07,3.5,2.56-.25,4.81-.31,7.21.44,1.4.44,2.9.83,4.35.83,9.71-.02,19.43-.5,29.12-.12,5.87.23,11.54,1.04,17.27-1.32,1.71-.71,3.23,1.8,4.07,3.67-5.19,2.58-10.72.95-16.09,1.31-15.22-.2-30.43.37-45.65.06-14.67-.51-29.35.49-44.02-.13-.6-.04-1.21-.14-1.79-.28-4.26-1.21-8.54-1.09-12.81-.03-5.13.33-10.27.62-15.4-.01-7.56-1.1-15.12-1.19-22.67.11-2.97.53-5.96.39-8.95.41-30.72.19-61.45-.29-92.17-.12-7.74.41-15.49-.3-23.23.03-6.31.18-12.61.07-18.92.04-2.13-.01-4.37.17-6.08-1.57,1.64-1.73,3.77-.97,5.67-.97,20.45-.06,40.9-.1,61.35.02,3.63.02,6.83-1.2,10.12-2.28,1.21-.4,2.53-1.19,2.1-2.89-.41-1.59-1.69-1.81-3.13-1.82-7.15-.03-14.3-.1-21.44-.15Z"/>
  <path class="cls-76" d="M153.16,196.23c-4.94-2.12-5.22-2.01-5.09,3.31.07,2.66-1.63,4.29-2.95,6.07-5.06,6.88-4.54,10.65,2.54,15.38,1.8,1.21,3.61,2.33,4.37,4.51-17.36-10.56-32.42-23.53-42.94-41.21.74-5.12,5.32-8.01,7.24-12.59,2.22-5.29,7.73-5.61,12.75-5.7,4.7-.09,3.61-3.14,3.32-5.89-.01-.55.1-1.07.31-1.58,4.88-3.96,14.82-4.17,19.24-.41.72,1.75.72,3.59.67,5.42-.22,9.17.22,18.3,1.18,27.42.19,1.78.74,3.66-.64,5.27Z"/>
  <path class="cls-21" d="M402.15,175.06c3.82,16.89,3.53,33.94,1.9,51.03-.16,1.64-.94,2.33-2.56,2.33-12.09-.02-24.19,0-36.72,0,3.96-10.73,5.82-21.66,8.08-32.49.53-.05.5,1.46,1.34.5,3.03-3.44,6.48-6.59,7.51-11.38.35-1.63,1.32-3.09,2.73-4.02,4.14-2.73,8.16-5.52,11.05-9.71,1.25-1.82,2.7-1.31,3.95.39.85,1.15,1.08,2.84,2.72,3.35Z"/>
  <path class="cls-42" d="M260.09,112.3c1.58.87.41,2.82,1.62,4.05,1.39-4.87-1.04-9.39-.7-14.06.18-2.46,1.28-3.6,3.05-5.38,5.41-5.45,11.42-5.99,18.25-4.64,1.73.34,3.14-.82,4.68-1.36,4-1.42,7.54.53,10.32,5.55-1.75,6.9-2.25,13.73.97,20.41.51,1.05,1.08,2.44-.73,2.71-9.23,1.39-9.98,8.37-10.41,15.59-1.9,3.06-5.58,2.37-8.3,3.79-3.94,2.05-8.28,3.38-12.13,5.73-3.29,2.01-5.68,1.35-6.77-2.58-.75-8.23-.18-16.52-1.3-24.74-.24-1.76-.05-3.67,1.46-5.06Z"/>
  <path class="cls-73" d="M402.15,175.06c-.76,1.07-1.51,1.19-2.22-.04-.8-1.39-1.58-2.79-2.63-4.64-2.99,4.98-6.68,8.58-11.46,11-1.36.69-2.5,1.71-2.79,3.3-1.11,6.08-5.28,9.95-9.81,13.73-.13-.87-.26-1.67-.39-2.48.06-7.49,0-14.98.23-22.46.3-9.53-.53-18.91-2.87-28.16,1.39-1.51.6-3.26.2-4.72-1.26-4.63.07-8.35,3.02-11.95,4.62-5.63,4.61-6.56,1.1-12.72-.99-1.73-1.77-3.47.38-4.7,2.08-1.19,3.4.25,4.41,1.91,1.36,2.24,2.26,4.84,4.85,6.11.25.03.5.06.75.09,3.36,8.63,6.98,17.16,9.99,25.91,3.34,9.69,6.47,19.48,7.23,29.82Z"/>
  <path class="cls-72" d="M97.9,373.28c52.28-.04,104.56-.07,156.83-.14,1.74,0,3.57.48,5.9-.74-5.38-.33-10.19-.06-14.87-1.17-1.3-.31-2.95-.12-3.21-1.72-.34-2.09,1.6-2.41,2.99-2.54,7.06-.66,11.32-7.91,18.99-7.32-1.63-2.18-4.05-.68-5.39-2.27,24.63-.1,49.26-.21,73.89-.28.93,0,2.18-.38,2.7.69.71,1.48-.75,2.01-1.61,2.64-5.21,3.86-10.45,7.68-15.72,11.46-1.79,1.29-3.76,1.97-6.05,1.97-67.57.04-135.15.14-202.72.14-3.89,0-7.93,1.3-11.72-.72Z"/>
  <path class="cls-64" d="M142.84,396.29c10.37-2.51,20.68-5.87,31.41-1.59,2.39.95,4.95.23,7.42.5,2.7.29,5.73-.1,6.71,3.68.5,1.92,2.57,1.47,3.87,1.21,8.58-1.71,17.23-.64,25.84-.89,2.37-.07,4.33-.18,6.07-2.38,2.28-2.88,6.39-2.43,9.51-3.28,5.71-1.54,9.18-5.48,13.22-8.95,1.19-1.02,1.1-2.1-.68-2.33-1.31-.17-2.66-.09-3.99-.09-27.78,0-55.56.01-83.35-.04-1.91,0-4.02.73-5.72-.87,17.61-.07,35.22-.16,52.83-.21,30.57-.09,61.15-.15,91.72-.2.94,0,1.99-.3,3.24,1.16-5.72,4.58-12.99,6.24-18.88,10.23-10.54,3.5-21,7.23-32.02,9.13-8.7,1.5-17.33.42-25.85-.54-15.03-1.7-29.91.06-44.82.85-12.6.67-24.89.06-36.53-5.4Z"/>
  <path class="cls-48" d="M300.2,159.99c3.34,4.92,4.53,10.93,8.15,15.75,1.37,1.82.02,3.99-.89,5.58-3.81,6.7-7.95,13.21-13.51,18.67-1.81.06-3.79-.39-5.33.81-3.3,2.57-4.99,1.42-7.63-1.59-4.61-5.26-7.74-11.1-10.22-17.5-1.38-3.57-3.92-6.48-6.89-9.52-1.02,2.4-.22,4.65-1.01,6.6-.54,1.34-1.22,2.72-2.65.62-1.01-4.06-.73-8.13-.23-12.21.68-2.54,2.24-4.37,4.63-5.44,3.35-1.5,6.07-3.9,8.97-6.06,1.23-.91,2.61-1.55,4.1-.63,1.3.81,1.38,2.2,1.21,3.52-.31,2.38-.25,4.59,1.75,6.29,5.15,1.59,6.01.78,6.03-5.78.17-1.83-1.29-4.12,1.06-5.35,2.22-1.16,4.36-.36,6.55.66,2.66,1.24,3.37,4.34,5.88,5.6Z"/>
  <path class="cls-32" d="M72.02,84.29c-1.52,3.68-4.02,6.92-4.95,10.87-7.52,11.43-13.06,23.89-19.05,36.12-8.65,1.7-16.44,5.76-24.61,8.79-2.71,1.01-3.34-.33-2.23-2.76,5.49-18.02,15.61-33.59,25.97-49.03,6.09-2.28,12.85-2.08,18.75-5.12,2.14-1.1,4.45-1.24,6.12,1.12Z"/>
  <path class="cls-41" d="M106.68,299.42c-1.28,1.29-2.5.85-3.57.86-22.81.25-45.62.38-68.42.78-3.39.06-5.25-.99-6.5-3.96-1.16-2.75-2.55-5.42-3.95-8.07-1.76-3.33-1.17-4.63,2.91-4.6,15.98.1,31.97-.05,47.95-.13,2.33-.01,4.72.23,6.98-.2,4.62-.88,7.74.6,10.59,4.41,3.57,4.76,9.27,7.24,14.01,10.9Z"/>
  <path class="cls-5" d="M40.11,176.28c.03,12.64-.15,25.29,2.88,37.69.87,3.54,1.92,7.05,3.11,10.5.94,2.73,1.22,4.15-2.68,3.99-9.64-.39-19.31-.6-28.94-.26-5.16.18-7.01-1.57-6.37-6.49.15-1.15.07-2.32.1-3.48,1.65-4.04,2.66-8.37,6.63-11.15,1.35-.95,2.1-2.97,2.57-4.73,1.54-5.76,4.03-10.39,9.73-13.56,3.35-1.86,5.26-6.19,7.68-9.53,1.25-1.73,2.15-4.44,5.28-3Z"/>
  <path class="cls-68" d="M40.11,176.28c-5.14,2.09-6.25,7.73-9.76,11.29-.96.97-1.44,2.65-2.95,3.02-4.92,1.21-6.62,5.15-7.94,9.3-1.39,4.35-2.47,8.58-7.08,11.1-2.42,1.32-.44,6.09-4.17,7.25-.41-5.33-.42-10.66.03-15.99,1.18-3.69-.26-7.57.83-11.26-.31-5.41.85-10.64,2.03-15.86,3.78-3.57,3.01-8.52,3.74-12.94.91-5.46,1.54-6.07,6.89-4.21,1.45.5,2.73.48,3.6-.67,2.74-3.65,7.25-5.17,10.13-8.72,1.85-2.27,4.58-3.17,7.61-2.28-2.32,9.86-2.29,19.96-2.96,29.98Z"/>
  <path class="cls-37" d="M384.17,119.25c-2.87-.25-4.3-2.14-5.2-4.61-.53-1.47-1.29-2.76-2.97-2.94-.47-.05-1.28.54-1.48,1.02-.68,1.62.81,2.35,1.67,3.24,3.62,3.69,3.04,7.92.14,11.13-4.07,4.51-6.54,8.91-4.46,15.09.23.68,1.79,3.69-1.67,3.13-6.17-21.31-18.33-39.89-27.35-59.9,1.61-.88.77-2.8,1.65-3.92,1.2-1.51,1.55-7.14,4.7-1.19.14.26.46.41.7.61,3.55-4.32,6.68,1.89,10.11.41,8.25,9.18,14.87,19.44,20.2,30.56,1.2,2.51,2.63,4.91,3.95,7.37Z"/>
  <path class="cls-57" d="M253.12,333.07c14.99.02,29.97.04,44.96.07-.42,2.91-2.87,2.45-4.56,2.29-9.27-.86-15.58,3.23-19.55,11.32-.81,1.66-1.92,1.93-3.53,1.97-2.11.06-4.28-.5-6.35.39-11.62.05-23.25.13-34.87.14-37.71.04-75.43.06-113.14.06-1.99,0-3.97-.16-5.96-.24-.24-.69-.03-1.21.62-1.55,8.65-1.78,17.4-.53,26.1-.77,27.52.34,55.07-1.1,82.58,1.02-2.69-.22-5.41.18-8.08-.47-1.51-.37-3.04-.74-3.3-2.52-.28-1.93.97-3.07,2.54-3.86,8.3-4.22,16.86-7.12,26.4-7.35,5.37-.13,10.8.69,16.14-.48Z"/>
  <path class="cls-31" d="M206.1,300.28c-8.99,0-17.97-.11-26.96.06-2.92.06-4.27-.49-3.97-3.78,1.47-15.84-2.16-12.37,13.27-12.69,15.3-.32,30.61-.09,45.91-.36,3.3-.06,3.82.99,3.66,3.96-.66,12.63-.57,12.63-12.96,12.63-3.16,0-6.32,0-9.48,0-3.16,0-6.32,0-9.48,0v.17Z"/>
  <path class="cls-86" d="M76.82,276.81c-18.25,0-36.49-.04-54.74.05-2.33.01-3.26-1.02-3.83-2.98-.93-3.19-1.81-6.4-2.96-9.51-1-2.71-.16-3.49,2.58-3.49,7.64-.01,15.28-.28,22.92-.34,6.98-.06,13.97.2,20.94-.07,3.13-.12,4.95.83,6.12,3.65,1.95,4.68,6.6,7.26,9.49,11.22-.18.49-.35.99-.53,1.48Z"/>
  <path class="cls-85" d="M261,180.26c2.12-2.47.61-5.42,1.06-8.11.16-.94-.17-2.19,1.15-2.39.87-.13,1.28.84,1.84,1.45,4.45,4.82,8.03,10.3,9.57,16.6,1.42,5.79,7.34,7.98,9.21,13.29.55,1.57,2.32.1,3.2-.82,2.26-2.38,4.53-2.42,6.93-.29-7.66,11.27-20.13,16.68-30.34,24.83-2.57,2.05-5.06,4.2-7.59,6.31,4.1-5.85,4.82-13.21,8.59-19.21.59-.93.51-2.03-.29-2.72-2.72-2.37-3.89-6.14-7.24-7.93-.21-.26-.55-.58-.49-.83,1.53-6.71,1.5-13.76,4.4-20.17Z"/>
  <path class="cls-11" d="M150.96,157.27c-6.09,0-12.4-1.71-17.99,2.27-1.39.29-2.56-.65-3.88-.71-1.71-.07-2.91.65-3.33,2.36-.3,1.25.12,2.34,1.22,3.02,1.48.91,2.86.65,4.04-.62.91-.98.96-2.5,2.13-3.32,1.97,5.58,1.15,7.05-4.41,6.98-6.67-.09-11.62,2.23-13.44,9.05-.97,3.61-4.91,4.73-6.19,7.99-1.97-2.71-3.94-5.42-5.91-8.13,2.5-3.49,4.5-7.17,5.8-11.33,2.18-7.02,6.67-12.79,11.01-18.59,2.69-2.41,5.56-4.02,9.41-2.96,2.46.68,4.57-.6,6.3-2.15,3.37-3.01,7.57-4.63,11.31-7.01,2.6-1.66,4.02-.84,4.24,2.11.17,2.14.44,4.25,1.02,6.33-.02,4.95,1.75,10.05-1.33,14.71Z"/>
  <path class="cls-54" d="M334.01,276.85c4.23-6.27,9.38-9.51,11.88-14.87.59-1.27,2.07-.86,3.17-.86,15.15-.08,30.29-.1,45.44-.2,2.81-.02,4.24.71,2.84,3.74-.14.3-.23.63-.33.94-3.6,11.12-3.6,11.18-15.2,11.23-15.45.06-30.9.02-47.8.02Z"/>
  <path class="cls-16" d="M371,300.11c-16.33.84-32.66.2-48.98.03-1.12-6.42,1.76-12.93,6.82-15.39,19.98-.03,39.95,0,61.02-.02-2.37,3.04-4.56,2.9-6.6,2.94-2.56.06-4.02.69-4.86,3.66-1.07,3.77-3.25,7.28-7.4,8.77Z"/>
  <path class="cls-89" d="M246.15,299.2c-1.4-4.38-.3-8.88-.55-13.31-.2-3.43,2.56-2.36,4.27-2.36,17.08-.04,34.16.03,51.23.04,2.31,0,4.62-.17,6.93-.27,1.18-.34,1.93.26,2.02,1.32.14,1.62-1.12,2.11-2.42,2.46-6.43-1.14-11.23,2.85-15.83,5.95-5.76,3.89-11.85,5.87-18.5,6.31-9.04.6-18.11.8-27.15-.15Z"/>
  <path class="cls-24" d="M35.51,252.84c-6.31,0-12.63-.13-18.94.06-2.82.08-4-.76-4.72-3.63-3.3-13.05-3.41-13.07,9.84-13.09,8.47-.01,16.95.11,25.42.18.83,0,2.18-.26,2.41.13,3,5.06,6.05,10.12,8.57,15.43.64,1.34-1.65,1.03-2.64,1.04-6.65.06-13.29.03-19.94.03,0-.05,0-.09,0-.14Z"/>
  <path class="cls-35" d="M376.08,253.1c-6.15,0-12.31.04-18.46-.03-1.39-.02-3.26.75-4.08-.77-.68-1.27.77-2.4,1.42-3.5,1.86-3.14,4.16-6.06,5.13-9.64.45-1.67,1.52-1.97,2.95-1.99,12.63-.18,25.27-.36,37.9-.56,2.23-.04,3.1.86,2.4,3.06-.05.16-.08.32-.1.49q-1.91,12.79-14.69,12.82c-4.16,0-8.31,0-12.47,0,0,.05,0,.09,0,.14Z"/>
  <path class="cls-69" d="M264.1,349.1c.26-.21.48-.54.77-.6,4.66-.93,8.07-2.45,10.28-6.1,4.06-6.69,9.98-8.67,17.31-8.26,1.87.1,4.02.79,5.62-1.01,15.32.02,30.64.03,45.96.05-.52,2.82-2.89,2.29-4.67,2.33-7.21.18-13.4,3.44-19.76,6.21-1.36.59-3.02,1.47-3.38,2.8-1.36,4.96-5.15,4.12-8.75,4.18-5.12.09-10.25-.45-15.36.32-9.34.03-18.68.05-28.02.08Z"/>
  <path class="cls-9" d="M300.2,159.99c-3.03.48-3.52-2.78-5.56-3.93-2.13-1.2-4.15-2.46-6.28-1.48-2.2,1.01.35,3.19-.35,4.79-.82.37-1.58.06-2.36-.17-3.78-1.12-5.15.66-5.04,4.2.03.96.31,1.95-.37,2.81-2.96-1.85-3.49-4.46-2.45-7.62.31-.94.45-2.02-.39-2.78-.68-.62-1.69-.56-2.25.08-3.92,4.53-10.15,5.91-14.11,10.37-2.57-7.66-2.53-15.32-.02-22.98,1.74,2.43,3.54,1.59,5.39.12,4.9-3.87,11.45-4.33,16.51-7.9,1.28-.91,2.89.96,4.2-.35,1.14,5.46,3.66,10.24,7.15,14.55,2.51,3.11,4.51,6.53,5.91,10.28Z"/>
  <path class="cls-12" d="M43.07,146.3c-6.93,1.85-11.34,7.24-16.3,11.78-2.09,1.91-3.85,3.35-6.23.78-.84-.91-1.53-1.85-2.87-1.18-1.41.7-1.42,2.07-1.52,3.43-.35,4.93-.52,9.92-3.1,14.37-.94,1.61-1.62,1.53-1.95-.36.05-7.29,2.12-14.19,4.14-21.08.46-1.57,1.32-3.02,1.05-4.75,1.2-4.16,2.25-8.39,4.88-11.98.35.76-.5,3.05,1.43,1.86,3.29-2.02,7.22-2.31,10.42-4.33,4.61-2.91,9.58-4.16,15-3.57-1.65,5.01-3.3,10.01-4.95,15.02Z"/>
  <path class="cls-79" d="M321.73,140.46c-3.1-6.23-6.79-12.11-10.59-17.93-3.58-5.48-6.44-11.25-6.36-18.04.02-1.5.03-3,.82-4.35,1.25-2.16,3.06-3.54,5.59-3.63,2.35-.08,3,2.06,3.64,3.6,5.13,12.22,12.34,23.44,17.19,35.8.29.73.81,1.38,1.22,2.06.4,1.01-.4,1.98-.98,1.67-3.76-2.01-7.05.45-10.54.83Z"/>
  <path class="cls-77" d="M110.12,348.2c0,.29,0,.58,0,.87-14.15.02-28.29.06-42.44.03-.94,0-2.19-.17-2.78-.77-4.54-4.56-8.97-9.25-13.38-13.95-.1-.11.4-.78.62-1.19,8.34.03,16.68.07,25.02.1.58.33,1.18.81,1.82.74,7.53-.91,12.37,4.38,17.23,8.43,3.42,2.84,6.32,4.95,10.78,4.53,1.14-.11,2.31.22,3.12,1.21Z"/>
  <path class="cls-18" d="M292.12,349.03c5.17-1.84,10.52-.35,15.76-.84,2.54-.24,5.57,1.37,6.07-3.68.21-2.07,4.38-4.03,7.36-5.32,7.29-3.17,14.86-5.12,22.73-6,5.3-.15,10.61-.59,15.89.2-3.18,6.22-9.07,10.02-13.59,15.04-.53.58-1.87.6-2.83.6-17.13.03-34.27,0-51.4,0Z"/>
  <path class="cls-7" d="M246.95,271.96c.09,2.11.85,3.24,3.31,3.23,19.6-.08,39.2.02,58.8-.07,4.49-.02,7.71-3.42,10.4-6.15,6.67-6.8,13.94-13.07,19.51-20.97,6.52-9.25,11.94-19,16.01-29.58,1.78-4.63,2.72-9.91,7.27-13.08-1.18,11.41-5.05,21.98-10.42,31.99-7.05,13.12-15.45,25.22-27.35,34.54-3.68,2.89-7.58,4.32-12.37,4.27-20.62-.21-41.25-.19-61.88-.17-3.03,0-5.22-.19-3.27-4.02Z"/>
  <path class="cls-55" d="M306.3,325.06c-.17-.23-.33-.47-.49-.7,8.69-.11,17.39-.21,26.08-.32,4.02-2.35,8.42-.9,12.63-1.19,3.97-.27,9.85-5.84,10.04-9.79.11-2.22-1.44-2.34-2.96-2.41-3.31-.15-6.63,0-9.94-.08-1.96-.05-4.03.22-5.64-1.35-5.3-.57-10.73,1.02-15.95-.91,18.06,0,36.12.02,54.17,0,3.14,0,3.45,1.35,1.83,3.6-2.99,4.16-6.07,8.27-9.11,12.4-3.7,1.05-7.56-.33-11.26.77-16.47,0-32.94-.02-49.42-.03Z"/>
  <path class="cls-75" d="M321.73,140.46c3.14-1.83,6-5.5,10.07-1.53.09.08.95-.63,1.45-.97,5.01,8.03,7.66,19.98,6.59,30.42-3.3-2.62-6.76-4.4-10.95-4.02-1.62.15-1.77-.97-1.77-2.28-.01-7.65-2.58-14.67-5.39-21.62Z"/>
  <path class="cls-23" d="M311.19,161.23c-2.23-6.72-6.57-12.19-10.52-17.9-1.79-2.58-3.74-5.13-4.36-8.29-.71-3.65,1.12-6.07,4.26-7.55,3.19-1.5,4.1,1.42,5.21,3.18,4.54,7.25,10.1,13.96,12.35,22.48-1.17,3.68-4.11,5.83-6.94,8.08Z"/>
  <path class="cls-53" d="M167.14,284.19c1.15,4.58-.2,9.16-.02,13.75.08,2.13-1.33,2.35-2.97,2.35-12.8-.05-25.6-.08-38.4-.12-.33,0-.76.08-.98-.09-7.24-5.56-16.38-8.52-23.46-16.87,3.31,0,5.36,0,7.41,0,17.95.01,35.91,0,53.86.08,1.52,0,3.34-.84,4.57.91-3.63,1.31-7.4,1.5-11.22,1.49-15.61-.05-31.23-.04-47.24-.01,8.63,4.1,17.02,7.61,26.14,9.1,3.89.63,7.09,3.43,11.4,3.12,3.7-.26,7.2-.77,10.68-2.08,3.28-1.23,5.45-3.29,5.68-6.82.19-3.03,1.96-4.24,4.57-4.81Z"/>
  <path class="cls-36" d="M371,300.11c2.65-1.99,3.31-5.44,5.61-7.69.34-.34,1.01-.82.94-1.04-3.02-8.75,4.24-3.91,6.84-5.08.94-.42,2.24-.07,3.38-1h-59.79c-1.7.88-3.38,1.52-4.99-.17,1.43-1.21,3.17-.83,4.78-.83,19.42,0,38.84.12,58.26.08,3.33,0,4.99.54,2.69,4.06-.54.83-1.02,1.73-1.34,2.66-2.76,7.92-8.23,10.88-16.37,9Z"/>
  <path class="cls-58" d="M246.15,299.2c5.65-.03,11.32-.43,16.93,0,7.31.57,14.25-1.24,20.93-3.35,5.02-1.58,9.57-4.99,13.97-8.09,3.32-2.34,6.45-3.09,10.14-1.5-.77,5.15-5.16,6.26-8.97,8-6.74,6.26-15.16,5.85-23.45,5.87-8.83.02-17.66,0-26.48-.08-1.04,0-2.38.63-3.06-.85Z"/>
  <path class="cls-25" d="M299.14,294.26c2.9-2.76,7.14-4.03,8.97-8,1.65-1.03,2.23-2.04-.08-2.96,3.61-1.04,6.13.45,6.88,3.88.6,2.75,1.92,2.6,3.86,2.01.91,2.43-1.31,2.93-2.54,3.94-3.38,2.78-7.23,4.93-10.64,7.67-2.74-.12-4.6-1.19-4.55-4.27.02-1.32-.55-2.11-1.9-2.26Z"/>
  <path class="cls-27" d="M305.59,300.79c.48-3.52,4.1-3.79,6.06-5.8,2.14-2.18,5.34-3.13,7.12-5.8,1.4-1.35,2.81-2.7,4.21-4.06,1.66.06,3.33.11,4.99.17-3.89,4.18-4.45,9.7-5.96,14.84-5.48.22-10.95.43-16.43.65Z"/>
  <path class="cls-40" d="M311.19,161.23c1.25-3.61,4.22-5.74,6.94-8.08.45,1.05.99,2.08,1.33,3.17q2.83,8.95-5.43,14.42c-.96-3.22-1.9-6.36-2.84-9.5Z"/>
  <path class="cls-5" d="M9.07,190.98c-.25,3.76,1.05,7.62-.83,11.26-.08-3.78-.41-7.58.83-11.26Z"/>
  <path class="cls-70" d="M355.72,325.09c3.7-1.04,7.5-.63,11.26-.77-3.65,1.82-7.5.63-11.26.77Z"/>
  <path class="cls-13" d="M72.02,84.29c-2.41-.94-4.63-.87-6.97.52-2.98,1.77-6.28,2.88-9.85,2.5-2.02-.22-3.36,1.03-4.91,1.9-1.28.71-2.79,1.75-3.14-.92,2.53-4.06,5.36-7.9,8.83-11.22,3.51-2.48,6.36-5.7,9.56-8.52,7.43-6.56,15.34-12.39,23.95-17.29,3.05-1.73,5.72-3.91,7.9-6.67,5.75-3.39,11.1-7.54,17.65-9.44,5.56-1.69,10.88-3.82,15.79-7.02,5.38-3.5,11.63-4.93,17.82-5.87,4.13-.63,8.01-1.59,11.98-2.85,9.98-3.17,20.31-4.9,30.77-5.34,6.8-.29,7.75.89,8.27,7.87.09,1.16.82,2.16.77,3.36.21-1.5-1.13-3.62,1.58-4.12,2.05,2.36,1.58,5.34,1.81,8.08.22,2.61-1.61,3.83-4.01,4.24-1.81.31-3.67.09-5.47.48-1.51.33-3,.84-3.18,2.66-.18,1.81,1.34,2.06,2.61,2.43.64.19,1.28.37,1.87.69,1.22,2.62-1.02,2.47-2.35,2.71-2.32.41-3.77,1.03-2.45,3.79,1.24,2.6.03,4.72-1.71,6.63-3.97,3.53-9.13,3.71-13.91,4.96-1.4.36-2.56-.3-3.76-.95-6.59-3.62-12.26-3.12-17.9,1.5-1.92.87-3.61-.08-5.06-1.02-4.8-3.12-10.83-2.38-15.71-5.19-.8-.46-1.47.49-2.17.86-2.09.72-3.94,1.6-4.33,4.17-.43,2.88-2.31,4.33-5.13,4.35-3.26.02-4.88,1.53-4.85,4.79-2.95,8.2-7.11,11.23-15.52,11.28-2.83.02-5.67.16-8.46-.41-3.97-.82-6.96.65-9.26,3.83-4.06-.22-7.97.13-11.05,3.24Z"/>
  <path class="cls-82" d="M202.02,21.34c-1.82,1.34-.36,3.52-1.37,5.22-1.24-2.49-2.95-4.39-2.12-7.77.7-2.83-2.33-3.36-4.83-3.46-7.52-.29-14.84,1.3-22.09,2.81-10.6,2.21-20.92,5.63-31.63,7.44-6.66,1.13-11.48,6.41-17.83,8.53-2.66.89-5.26,1.78-8.02,2.24-.38-1.19.35-2.06,1.19-2.44,5.85-2.67,10.84-6.81,16.74-9.45,7.51-3.36,15.18-6.13,23.14-8.13.28-.07.61-.02.85-.24-.87.08-1.63-.13-2.18-.86,11.14-3.58,22.7-5.11,34.21-6.85,9.99-.9,19.99-.72,29.98-.09,6.95,1.07,13.92,1.99,20.96,2.21,3.79.59,7.06,3.11,11.05,2.92.77.91,2.78-.22,2.83,1.29.06,1.75-1.83,1.89-2.98,1.77-8.41-.87-16.81,1.63-25.24-.15-5.25-1.11-9.44,1.93-10.54,7.23-.34,1.65-.4,3.34-2.33,4.02-1.04.03-1.34-.74-1.64-1.52q-2.32-6.05-8.16-4.73Z"/>
  <path class="cls-49" d="M153.87,15.24c.79.18,2,.11,2.27.58.52.92-.63,1.21-1.26,1.64-2.59,1.79-5.86,1.16-8.48,2.16-11.37,4.34-22.11,10.02-32.28,16.74-5.34,2.99-10.68,5.97-16.02,8.96-3.1.83-5.18,3.32-7.84,4.86-2.72,1.58-3.29,1.45-5.21-.96,12.21-10.11,26.02-17.56,40.4-23.94,9.18-4.07,18.63-7.56,28.4-10.04Z"/>
  <path class="cls-30" d="M85.07,49.22c2.19,2.28,3.62.27,5.54-.67,2.42-1.19,3.71-5.28,7.5-3.23-1.51,2.7-3.88,4.54-6.49,5.99-12.32,6.87-23.19,15.62-33.33,25.34-.64.61-1.29,1.78-2.32.41,8.15-10.9,18.05-19.97,29.1-27.84Z"/>
  <path class="cls-52" d="M218.07,8.3c-9.99.03-19.99.06-29.98.09,1.43-1.66,3.39-1.08,5.1-.99,8.29.45,16.66-1.22,24.89.9Z"/>
  <path class="cls-29" d="M324.01,47.42c-2.1,2.01-3.67-.08-5.29-.81-3.99-1.81-6.8-1.27-10.63,1.65-5.8,4.42-8.32,10.7-12.19,16.23-.62.89-1.07,1.78-2.07.42-1.15-2.15-2.12-4.29-5.1-4.66-2.56-.32-3.01-2.74-3.47-4.82-.46-2.06-1.2-4.08-1.18-6.24-8.51-4.13-17.45-3.77-26.23-1.69-8.91,2.11-18.05,1.08-26.94,2.82-1.93.38-3.87.68-5.81,1.01-.54-4.03,2.53-6.84,3.48-10.37,4.82-7.81,12.03-10.62,20.96-10.71,4.92-.05,9.9-.93,14.38-3.42,3.6-2,7.08-1.6,10.26.84,4.85,3.73,9.9,5.66,16.36,5.81,5.55.13,11.48,1.3,16.83,3.75,6.13,2.45,11.37,6.36,16.66,10.18Z"/>
  <path class="cls-4" d="M307.35,37.24c-7.92,1.17-15.06-4.36-23.29-2.46-2.86.66-6.01-2.56-8.5-4.63-3.83-3.17-7.45-4.48-12.1-1.83-5.04,2.88-10.75,2.57-16.3,3.37-4.84.69-11.14-.26-14.08,5.99-.71,1.51-2.63,2.45-4,3.65-3.81.12-3.59-3.87-5.68-5.51-2.57-2.38-5.83-1.85-8.89-2.21-4.29-.5-4.99-1.84-3.44-6.29.95-.43,1.74-1.05,1.87-2.15,1.21-9.63,5.17-12.42,14.43-9.5,2.71.85,4.84-.49,7.29-.41,5.75.21,11.51.07,17.31.07.12-1.46-1.69-.88-1.89-1.92,7.84.64,14.83,3.99,22.11,6.58,11.66,4.15,22.31,10.35,33.5,15.45.68.31,1.11,1.17,1.66,1.77Z"/>
  <path class="cls-50" d="M66.03,159.87c.05,3.16.53,6.39.05,9.46-.89,5.68,1.03,8.69,6.89,8.93.66,6.45,4.85,11.47,7.02,17.31,7.01,14.38,15.71,27.73,24.96,40.74,2.64,3.71,6.67,5.92,10.46,8.36,1.83,1.17,4.47,2.53,2.73,5.47-1.55,2.62-4.15,2.51-6.65,1.56-6.16-2.35-10.45-7.02-14.24-12.13-10.71-14.45-19.24-30.29-28.71-45.53-2.82-4.54-3.82-9.47-3.48-14.79.42-6.45.65-12.92.96-19.38Z"/>
  <path class="cls-74" d="M79.99,195.58c-3.91-5.13-8.39-10.03-7.02-17.31,6.74-8.18,12.64-7.58,20.09,2.06,1.37,2.3-.62,2.92-1.98,3.59-2.36,1.16-4.88,2-7.3,3.04-1.28.55-3.19.72-3.12,2.64.05,1.53,1.58,1.95,2.79,2.47.61.26,1.21.52,1.64,1.05-1.07,2.14-4.11.18-5.1,2.46Z"/>
  <path class="cls-19" d="M90.2,116.49c-.48-.77-1-.6-1.6-.13-3.72,2.86-3.7,2.85-4.98-1.18-.05-.16-1.17.01-1.78.03,2.27-6.4,5.18-12.68,3.94-19.78,1.38.49,1.32,1.67,1.36,2.81.07,2.25-.93,4.92,3.44,4.33,2.51-.34,1.91,3.37,3.46,4.73.95,3.99-.16,7.12-3.84,9.18Z"/>
  <path class="cls-83" d="M85.1,193.12c-1.46-.22-3.04-.17-4.35-.75-1.34-.59-2.42-1.86-2.5-3.48-.1-1.91,1.72-1.74,2.82-2.21,3.35-1.42,6.74-2.77,10.15-4.03,1.18-.44,2.19-.78,1.85-2.32,1.28.55,1.76,1.66,2.06,2.9-.34,6.34-5.04,8.26-10.03,9.89Z"/>
  <path class="cls-3" d="M335.03,190.26c-5.25,3.79-14.04.69-16-5.65-.49-1.59-.17-2.57,1.76-2.51,2.14.07,4.31-.05,6.21,1.22,1.97,1.05,3.81,2.31,5.98,3.02,1.77.58,3.2,1.66,2.05,3.92Z"/>
  <path class="cls-59" d="M335.03,190.26c.13-2.41-1.79-2.97-3.44-3.53-1.94-.66-3.57-1.57-4.59-3.41,3.19-.24,5.79,1.82,8.82,2.44,2.58.53.36,3.05-.79,4.5Z"/>
  <path class="cls-80" d="M261.04,143.29c0,7.66.01,15.32.02,22.98-.02,4.66-.04,9.33-.06,13.99-.76,7.1-1.31,14.24-3.91,21-4.11,6.4-7.21,13.29-13.08,18.7-29.16,26.86-75.17,16.41-89.41-20.6-.41-1.07-.95-2.09-1.43-3.13-2.67-12.88-1.42-25.98-2.21-38.97.03-5.34.07-10.68.1-16.01-1.15-9.59-2.48-19.17-.44-28.8,2.55-12.12,7.42-23.01,16.09-32.15,7.77-8.19,17.39-12.66,28.14-15.13,1.46-.33,2.91-.71,4.38-1.01,5.27-.02,10.67-1.67,15.71,1.24,8.64,2.02,16.55,5.67,23.73,10.88,11.25,8.16,18.18,19.02,20.31,32.82.18,1.17.32,2.28,1.11,3.2.32,10.33.64,20.66.95,30.98Z"/>
  <path class="cls-34" d="M214.93,65.41c-5.55-.64-11.1-.51-16.65,0-5.03.65-5.18.65-5.1-4.43.06-3.66-3.32-5.49-4.09-8.64.68-2.56,2.18-4.91-.51-7.58-1.39-1.39.21-3,2.16-3.35,1.76-.31,3.66.4,5.33-.68,3.75-2.08,5.96-1.41,7,2.22.55,1.9.3,3.96.98,5.84.46,1.26,1.02,2.53,2.66,2.52,1.62-.01,2.21-1.23,2.64-2.53.26-.78.38-1.61.42-2.43.2-4.41,2.79-6.58,6.91-6.93,3.3-.29,6.03-1.42,8.14-3.99,1.84,1.67,1.56,4.87,4.26,5.92-.02,3.86-2.72,6.64-4,10-1.51,1.26-3.23,2.34-4.5,3.81-2.47,2.88-4.83,5.96-.71,9.93-2.06.14-3.5.23-4.94.33Z"/>
  <path class="cls-65" d="M284.06,49.19c1.72.83,2.06,2.37,2.19,4.09.26,3.41-.01,6.78,5.52,6.27,3.49-.32,1.66,3.4,2.04,5.37-1.18,1.09-2.63,1.34-4.15,1.26-2.31-.12-3.82.44-3.74,3.23.07,2.27-1.54,3.08-3.59,3.23-2.46.19-3.15-1.42-3.34-3.38-.24-2.42-1.37-3.49-3.89-3.28-2.41.2-3.76-.98-3.63-3.52.12-2.21,1.3-3.45,3.51-3.18,3.5.43,4.34-1.25,3.92-4.32-.52-3.86.91-6.09,5.14-5.76Z"/>
  <path class="cls-14" d="M212.24,260.29c.02,3.22-1.79,5.31-4.37,5.35-2.97.04-5.43-2.19-5.6-5.26-.17-3.05,1.69-5.66,5-5.69,3.48-.03,4.41,2.93,4.97,5.6Z"/>
  <path class="cls-22" d="M336.03,309.24c5.63,0,11.26.17,16.88-.07,4.09-.17,4.21,1.36,3.18,4.73-1.06,3.47-5,5.34-4.73,9.54.07,1.08-1.99.68-3.08.69-5.46.02-10.92-.05-16.39-.08-1.47-1.37-4.6-1.21-4.43-3.96.13-2.1,2.52-2.61,4.11-3.05,4.27-1.18,1.47-6.1,4.45-7.81Z"/>
  <path class="cls-20" d="M83.07,81.05c.49-.94-2.79.34-.89-1.82,5.42-6.17,12.21-2.55,18.37-2.82,8.14-.36,11.51-2.44,14.71-10.38,4.38-.09,9.01-1.18,10.79,4.95.68,2.32,3.11,2.08,4.12.01,1.34-2.73,3.55-4.14,5.95-5.66,2.73-1.74,2.59-3.79-.34-4.4-5.21-1.09-5.53-4.36-4.7-8.51-.82-2.07.52-2.67,1.87-1.89,6.32,3.67,14.24,3.13,20.14,7.8.76,2.38-.61,3.93-2.38,4.91-3.08,1.71-4.37,4.21-4.76,7.62-.55,4.82-5.03,8.14-9.85,7.49-1.51-.2-3.16-.75-4.32.29-4.57,4.07-9.75,8.7-10.57,14.43-1.04,7.33-1.02,15.18,1.06,22.65.27.96.6,1.89.99,2.82.32,2.1,2.51,4.62-1.27,5.82-1.6-.83-2.48-2.85-4.46-2.98-4.55-.31-5-1.92-2.78-5.87,3.99-7.1,2.55-14.54-.63-21.46-2.59-5.63-9.72-7.7-16.52-4.83-3.54,1.5-5.62,1.04-7.02-2.3-1.43-3.44-5.15-3.77-7.52-5.88Z"/>
  <path class="cls-6" d="M122,124.37c2.49-1.98.07-4.05.13-6.08-1.18-10.51,8.55-13.93,16.52-10.41,3.07,1.36,6.33,2.17,9.72,1.36,1.95-.47,3.24-.03,3.71,2.04-1.52,9.95-.14,20-1.01,29.97-2-2.07-.23-4.83-1.42-7.42-4.38,3.62-9.95,5.03-14.1,9.05-1.86,1.8-4.53,3.16-7.71,1.4-2.9-1.6-4.96,2.23-7.84,1.95.98-3.47,3.81-6.13,4.16-9.9.39-4.21.11-8.26-2.16-11.97Z"/>
  <path class="cls-71" d="M90.2,116.49c1.65-2.91,3.41-5.77,3.84-9.18.74-2.62,2.16-4.94,3.2-7.41.96-2.28,2.34-3.8,4.61-3.78,2.58.02,4.17,2,4.96,4.29,1.49,4.31.81,8.61-1.08,12.57-4.68,9.83-8.95,19.88-15.12,28.93-.43.63-.44,1.54-.64,2.32-4.06.87-6.89,3.71-9.99,6.14-1.4,1.1-2.55,3.38-5,1.88-.28-4.87,2.41-8.76,4.44-12.79,3.81-7.57,6.32-15.74,10.79-22.99Z"/>
  <path class="cls-2" d="M99.15,169.72c-1-.36-1.35-.4-1.6-.59-6.41-4.68-6.2-4.62-3.83-12.47,2.88-9.54,7.93-17.85,13.86-25.69,1.16-1.53,1.76-4.87,4.56-3.32,2.82,1.57,4.77,4.35,3.27,7.96-.82,1.98-2.09,3.76-3.11,5.66-4.88,9.15-12.25,17.11-13.15,28.43Z"/>
  <path class="cls-28" d="M74.98,152.26c4.1-1.53,6.64-5.18,10.12-7.57,1.77-1.21,3.12-1.6,4.87-.46-1.76,6.3-4.81,12.38-3.31,19.43-3.76.5-7.55.92-11.05,2.52-1.67.76-2.57.17-2.33-1.72.52-4.07.11-8.28,1.69-12.2Z"/>
  <path class="cls-19" d="M85.71,89.23c-1.09-.19-2.77-.35-3.05-2.11-.18-1.11.99-1.57,2.03-1.71,1.91-.25,2.76,1,3.05,2.54.19.99-.73,1.32-2.02,1.28Z"/>
  <path class="cls-61" d="M253.12,333.07c-1.29,1.52-3.42,2.39-4.87,1.95-8.24-2.56-16.07.97-24.09,1.21-.96.03-2.44.05-2.79.62-2.18,3.55-5.85,3.97-9.33,4.91-1.41.38-3.17.66-3.26,2.56-.11,2.21,2.03,1.79,3.26,2.31,3.14,1.33,6.58.02,9.79,1.57h-84.72c-4.2-11.5-4.2-11.37-16.74-11.68-5.47-.14-10.97-.16-16.41-.97-1.48-.22-3.54.17-3.8-2.26,33.88-.07,67.75-.13,101.63-.2,7.52-.62,15.04-.62,22.57,0,5.14-.42,10.28-.41,15.42,0,4.19-.6,8.38-.63,12.57.01.25-.21.51-.22.78-.04Z"/>
  <path class="cls-81" d="M100.16,333.29c6.1,2.4,12.59.82,18.84,1.84,2.76.45,5.65.12,8.48.08,6.88-.12,11,6.68,9.63,12.99-9,0-17.99,0-26.99,0-2,0-4-.14-5.99.03-3.15.26-4.87-1.14-7.32-3.29-4.7-4.15-9.05-9.78-16.42-9.73-1.47,0-2.57-.57-3.23-1.9,7.66,0,15.33,0,22.99,0Z"/>
  <path class="cls-57" d="M224.35,333.1c-7.52,0-15.04,0-22.56,0,7.52-.86,15.04-.85,22.56,0Z"/>
  <path class="cls-57" d="M252.34,333.11c-4.19,0-8.38,0-12.57-.01,4.19-.81,8.38-.83,12.57.01Z"/>
  <path class="cls-45" d="M133.14,160.28c-.17,2.29.12,4.89-2.73,5.79-1.77.56-3.57.43-5.06-1.06-1.34-1.35-1.48-2.98-1.04-4.61,1.03-3.85,4.28-4.15,8.67-.86-.01.26.04.51.17.74Z"/>
  <path class="cls-8" d="M280.25,166.21c-1.18-2.82-2.01-5.71.8-8.02,2.63-2.17,4.84-.43,6.96,1.18.37,7.32-1.46,8.94-7.76,6.85Z"/>
  <path class="cls-10" d="M167.14,284.19c-.86,1.28-2.79,1.19-3.12,3.44-1.11,7.83-5.47,11.38-13.65,11.54-12.06.24-22.9-4.67-33.92-8.53-3.22-1.13-6.51-2.33-9.67-3.74-.8-.36-1.37-1.22-2.95-2.7,21.9,0,42.61,0,63.31,0,0,0,0,0,0,0Z"/>
  <path class="cls-38" d="M152.07,111.29c-.91-.51-1.34-1.82-2.92-1.04-4.18,2.08-8.07.19-11.79-1.49-1.54-.7-2.84-.89-4.54-1-7.81-.52-8.83,5.33-10.69,10.53-2.48-5.68-1.83-11.75-2.51-17.68-.88-7.58,2.14-12.55,6.58-17.94,3.07-3.73,4.91-7.77,10.84-5.21,2.56,1.1,7.96-3.64,7.83-6.49-.18-3.94.69-7.08,5.07-8.36,1.88-.55,2.32-2.68,3.17-4.28.48-3.95,3.83-4.66,6.61-4.78,4.41-.2,8.71-.97,13.15,2.41,2.89,2.2,7.98-.41,11.79-1.9,1.46-.57,2.63-1.93,4.44-1.73,4.38,3.12,7.08,6.88,4.32,12.76,1.95.13,3.41.22,4.86.32-9.18,2.44-18.26,5.07-25.79,11.3-10.98,9.07-17.26,20.9-20.43,34.58Z"/>
  <path class="cls-62" d="M224.82,35.42c-.01,3.73-1.85,5.21-5.6,5.33-7.48.24-7.48.4-8.26,7.74-.29,2.75-1.36,5.02-4.46,5-2.98-.02-3.63-2.46-3.97-4.88-.12-.82-.15-1.67-.09-2.49.32-4.68-1.77-6.49-6.35-5.39-1.32-.09-2.64-.17-3.96-.26-1.96-.14-3.01-1.23-3.17-3.16-.16-1.99.29-3.8,2.52-4.23,2.27-.43,4.6-.65,6.91-.71,3.49-.09,5.39-1.05,4.1-5.11-.58-1.84-.33-3.94-.46-5.92,1.78-1.3,3.24-3.78,5.93-2.33,3.34,1.8,2.72,5.3,3.12,8.33-1.1,3.39-.03,4.79,3.67,4.68,3.67-.11,7.69-.58,10.08,3.4Z"/>
  <path class="cls-63" d="M131.09,52.42c.34,1.08,1.03,2.19.94,3.23-.25,2.92.61,4.31,3.8,4.05,1.55-.13,3.49,0,4.07,1.97.63,2.12-.76,3.78-2.37,4.43-3.11,1.26-5.7,2.5-6.4,6.32-.3,1.64-2.28,2.23-4.12,1.94-1.54-.24-2.57-1.27-2.41-2.67.55-4.72-2.14-5.1-5.69-4.56-1.39.21-2.58-.27-3.66-1.1-.57-4.58,1.51-6.38,6-5.98,1.93.18,3.76-.21,3.55-2.89-.38-4.83,2.27-5.69,6.27-4.74Z"/>
  <path class="cls-1" d="M166.74,204.46c-5.21-9-7.5-18.62-7.25-29.08.28-11.15-.06-22.32-.36-33.47-.09-3.27.93-4.31,4.2-4.28,26.14.26,52.29.38,78.43.54,10.78-1.22,10.47-1.21,10.86,9.01.5,12.88-1.17,25.67-3.7,38.03-4.49,21.91-21.87,38.06-44.83,37.1-11.58-.49-22.75-4.72-31.6-13.18-1.78-1.7-3.25-3.84-5.75-4.66Z"/>
  <path class="cls-66" d="M165.12,128.44c-6.08.73-6.18.72-5.9-5.05.88-18.57,6.66-34.61,24.05-44.1,24.24-13.23,54.52-2.54,65.18,22.71.84,1.98-.03,4.37,1.78,5.98-.5,4.06-.74,8.14-.95,12.22-.19,3.68-3.04,5.82-5.37,8.04-1.79,1.71-4.07.39-4.32-2.16-.31-3.25.64-6.57-.53-9.78-1.99-13.89-9.32-23.69-22.69-28.22-16.98-5.76-34.39,2.74-41,19.53-.36.92-.75,1.82-1.13,2.73-2.95,6.07-4.77,12.72-9.12,18.08Z"/>
  <path class="cls-17" d="M205.73,129.08c-6.99,0-13.98-.08-20.96.04-2.61.05-3.64-.81-3.35-3.47.31-2.81.38-5.64.54-8.46.72-12.5,9.74-21.67,21.86-22.2,13.79-.6,24.3,7.44,26.23,20.06,2.06,13.46,1.53,14.11-11.84,14.23-4.16.04-8.32,0-12.48,0,0-.07,0-.14,0-.21Z"/>
  <path class="cls-78" d="M166.74,204.46c3.1-1.86,4.13,1.17,5.55,2.6,9.11,9.21,20.75,13.63,33.02,13.89,16.89.37,29.16-8.58,37.68-23.22,5.23-8.99,4.69-19.09,7.09-28.6,2.14-8.48,1.71-17.09,2.07-25.69.18-4.36-1.43-5.6-5.42-5.11-1.62.2-3.31-.1-4.96-.17q11.44-1.96,11.23,9.15c-.22,12.15-.48,24.3-.64,36.46-.29,21.2-19.6,41.34-41.43,42.62-18.76,1.1-34.46-4.55-44.19-21.94Z"/>
  <path class="cls-87" d="M239.06,116.31c2.02,2.85.58,6.07.99,9.1.15,1.13-.05,2.37,1.49,2.73,1.76.42,1.42-1.52,1.98-1.83,5.21-2.91,4.88-7.75,4.48-12.47-.21-2.48,1.88-3.76,2.23-5.85,2.74,6.16,1.66,12.74,2.08,19.15.09,1.46-.83,2.05-2.2,2.06-.33,0-.67.03-1,.03-12.02-.12-10.33,3.19-10.04-12.92Z"/>
  <path class="cls-47" d="M165.12,128.44c2.21-6.45,4.65-12.78,9.12-18.08-.2,4.48-.85,9-.49,13.43.35,4.36-1.09,5.78-5.19,5.07-1.14-.2-2.29-.28-3.44-.42Z"/>
  <path class="cls-46" d="M211.07,37.06c-.11,2.42-2.11,3.44-4.61,3.5-2.49.07-4.13-1.32-4.05-3.92.1-2.84,1.56-4.66,4.63-4.64,2.94.02,4.02,1.81,4.02,5.06Z"/>
  <path class="cls-39" d="M223.2,172.99c-.24,4.35-2.96,9.55-8.48,12.82-2.12,1.26-2.65,2.52-2.58,4.71.13,3.99.04,7.99.07,11.98.03,3.72-2.25,4.82-5.46,4.99-3.34.17-5.53-1.09-5.75-4.66-.17-2.82-.39-5.66-.25-8.48.21-4.11-.16-7.06-4.74-9.41-5.91-3.03-7.89-14.67-4.75-21.29,3.33-7.03,11.31-10.69,19.3-8.86,8.11,1.85,12.91,7.95,12.64,18.21Z"/>
  <path class="cls-60" d="M214.34,170.03c.05,4.99-3.97,10.32-7.65,10.14-3.71-.18-8.53-5.52-8.71-9.65-.18-4.13,3.94-8.03,8.42-7.97,5.14.06,7.89,2.65,7.93,7.48Z"/>
</svg>